<svg width="21" height="22" viewBox="0 0 21 22" fill="none" xmlns="http://www.w3.org/2000/svg">
<path d="M9.64993 4.6504C10.03 4.60609 10.4183 4.58331 10.8139 4.58331C15.0892 4.58331 18.5138 7.24407 19.9806 11C19.6188 11.9262 19.1381 12.7858 18.5549 13.5553M5.7902 5.97613C3.92014 7.11703 2.47324 8.88485 1.64722 11C3.11401 14.7559 6.53858 17.4166 10.8139 17.4166C12.6817 17.4166 14.3871 16.9088 15.8378 16.0237M8.86943 9.05535C8.37172 9.55301 8.06388 10.2405 8.06388 11C8.06388 12.5188 9.2951 13.75 10.8139 13.75C11.5733 13.75 12.2609 13.4421 12.7585 12.9444" stroke="#B1B2B2" stroke-width="1.83" stroke-linecap="round" stroke-linejoin="round"/>
<path d="M3.48059 3.66669L18.1473 18.3334" stroke="#B1B2B2" stroke-width="1.83" stroke-linecap="round"/>
</svg>
