<svg width="31" height="32" viewBox="0 0 31 32" fill="none" xmlns="http://www.w3.org/2000/svg">
<path d="M7.63968 20C9.74931 20 11.4595 18.2091 11.4595 16C11.4595 13.7909 9.74931 12 7.63968 12C5.53005 12 3.81986 13.7909 3.81986 16C3.81986 18.2091 5.53005 20 7.63968 20Z" stroke="black" stroke-width="1.5" stroke-linecap="round" stroke-linejoin="round"/>
<path d="M21.009 29C23.1186 29 24.8288 27.2091 24.8288 25C24.8288 22.7909 23.1186 21 21.009 21C18.8993 21 17.1891 22.7909 17.1891 25C17.1891 27.2091 18.8993 29 21.009 29Z" stroke="black" stroke-width="1.5" stroke-linecap="round" stroke-linejoin="round"/>
<path d="M21.009 11C23.1186 11 24.8288 9.20914 24.8288 7C24.8288 4.79086 23.1186 3 21.009 3C18.8993 3 17.1891 4.79086 17.1891 7C17.1891 9.20914 18.8993 11 21.009 11Z" stroke="black" stroke-width="1.5" stroke-linecap="round" stroke-linejoin="round"/>
<path d="M17.7979 9.16248L10.8506 13.8375" stroke="black" stroke-width="1.5" stroke-linecap="round" stroke-linejoin="round"/>
<path d="M10.8506 18.1625L17.7979 22.8375" stroke="black" stroke-width="1.5" stroke-linecap="round" stroke-linejoin="round"/>
</svg>
